<svg width="4625" height="2623" viewBox="0 0 4625 2623" fill="none" xmlns="http://www.w3.org/2000/svg">
<g clip-path="url(#clip0_115_3)">
<path d="M4503.24 1417.98L4096.39 1496.13L4176.36 1912.44L4583.21 1834.29L4503.24 1417.98Z" stroke="url(#paint0_linear_115_3)" stroke-opacity="0.32" stroke-width="20"/>
<path d="M435.045 606.269L28.1973 684.417L108.164 1100.73L515.011 1022.58L435.045 606.269Z" stroke="url(#paint1_linear_115_3)" stroke-opacity="0.23" stroke-width="20"/>
<path d="M2267.35 2123.15C393.985 2419.7 1589.7 1170.57 -66 1752.03L-3.22937 -0.0487784L4634 -145L4629.41 2514C4466.51 2284.87 3766.03 1885.9 2267.35 2123.15Z" fill="url(#paint2_linear_115_3)"/>
<path d="M1055.1 1519.09L1051.19 1565.03C1050.73 1570.39 1048.16 1575.35 1044.05 1578.82C1039.93 1582.3 1034.61 1583.99 1029.24 1583.54L646.334 1550.97C640.97 1550.5 636.008 1547.93 632.537 1543.82C629.067 1539.7 627.371 1534.38 627.821 1529.01L631.731 1483.07C632.193 1477.71 634.763 1472.75 638.879 1469.28C642.996 1465.8 648.319 1464.11 653.685 1464.56L1036.59 1497.13C1041.96 1497.6 1046.92 1500.17 1050.39 1504.28C1053.86 1508.4 1055.55 1513.72 1055.1 1519.09Z" fill="#FFB9B9"/>
<path d="M1131.42 1743.18L1089.01 1761.27C1078.71 1765.67 1068.11 1764.04 1065.39 1757.64L971.716 1538.1C968.987 1531.7 975.144 1522.92 985.443 1518.53L1027.85 1500.44C1038.15 1496.04 1048.75 1497.67 1051.48 1504.07L1145.15 1723.61C1147.88 1730.01 1141.72 1738.79 1131.42 1743.18Z" fill="#FFB9B9"/>
<path d="M961.384 1553.45L957.474 1599.39C957.012 1604.76 954.442 1609.72 950.326 1613.19C946.209 1616.66 940.886 1618.35 935.52 1617.9L552.614 1585.33C547.25 1584.87 542.29 1582.29 538.82 1578.18C535.349 1574.06 533.653 1568.74 534.104 1563.37L538.01 1517.43C538.473 1512.07 541.045 1507.11 545.162 1503.64C549.276 1500.17 554.601 1498.47 559.965 1498.92L942.871 1531.5C948.235 1531.96 953.197 1534.53 956.667 1538.64C960.136 1542.76 961.834 1548.08 961.384 1553.45Z" fill="#FFB9B9"/>
<path d="M1037.71 1777.54L995.293 1795.64C984.996 1800.03 974.395 1798.4 971.666 1792.01L877.995 1572.46C875.266 1566.06 881.425 1557.28 891.722 1552.89L934.134 1534.8C944.431 1530.4 955.032 1532.03 957.761 1538.43L1051.43 1757.97C1054.16 1764.37 1048 1773.15 1037.71 1777.54Z" fill="#FFB9B9"/>
<g filter="url(#filter0_i_115_3)">
<path d="M1735.42 363.372L1656.05 424.147L1716.83 503.516L1796.2 442.744L1735.42 363.372Z" fill="#ED20FF"/>
</g>
<g filter="url(#filter1_i_115_3)">
<path d="M1286.59 991.517C1324.55 991.517 1355.32 960.746 1355.32 922.789C1355.32 884.833 1324.55 854.063 1286.59 854.063C1248.64 854.063 1217.87 884.833 1217.87 922.789C1217.87 960.746 1248.64 991.517 1286.59 991.517Z" fill="#FF6584"/>
</g>
<path d="M1268.96 971.703C1260.32 960.419 1255.22 946.829 1254.31 932.647C1253.4 918.465 1256.7 904.331 1263.82 892.033C1270.94 879.732 1281.55 869.82 1294.3 863.548C1307.05 857.276 1321.37 854.925 1335.46 856.794C1349.55 858.663 1362.77 864.668 1373.44 874.05C1384.12 883.431 1391.77 895.766 1395.43 909.495C1399.1 923.227 1398.61 937.734 1394.02 951.187C1389.44 964.639 1380.97 976.432 1369.69 985.069C1354.55 996.633 1335.45 1001.72 1316.56 999.215C1297.68 996.71 1280.56 986.815 1268.96 971.703ZM1378.1 888.138C1370.21 877.836 1359.44 870.104 1347.16 865.92C1334.88 861.739 1321.63 861.291 1309.1 864.637C1296.56 867.982 1285.3 874.97 1276.73 884.715C1268.17 894.463 1262.69 906.53 1260.98 919.392C1259.27 932.255 1261.42 945.334 1267.14 956.977C1272.87 968.62 1281.92 978.303 1293.15 984.802C1304.38 991.3 1317.29 994.323 1330.23 993.49C1343.18 992.654 1355.59 987.998 1365.89 980.11C1379.69 969.519 1388.73 953.889 1391.01 936.648C1393.3 919.404 1388.66 901.961 1378.1 888.138Z" fill="#3F3D56"/>
<path d="M1740.62 508.904L1676.05 424.573L1760.38 360L1824.96 444.331L1740.62 508.904ZM1684.81 425.734L1741.79 500.146L1816.2 443.17L1759.22 368.76L1684.81 425.734Z" fill="#3F3D56"/>
<g filter="url(#filter2_i_115_3)">
<path d="M1906.56 920.884L1827.19 981.658L1887.96 1061.03L1967.34 1000.25L1906.56 920.884Z" fill="#ED20FF"/>
</g>
<path d="M1911.76 1066.42L1847.19 982.086L1931.52 917.512L1996.1 1001.84L1911.76 1066.42ZM1855.95 983.246L1912.92 1057.66L1987.34 1000.68L1930.36 926.272L1855.95 983.246Z" fill="#3F3D56"/>
<path d="M586.45 1105.14C678.788 1105.14 753.643 1030.29 753.643 937.954C753.643 845.617 678.788 770.764 586.45 770.764C494.113 770.764 419.26 845.617 419.26 937.954C419.26 1030.29 494.113 1105.14 586.45 1105.14Z" fill="#FFB6B6"/>
<path d="M611.054 999.922L610.881 993.674C622.505 993.351 632.751 992.621 640.452 986.997C642.634 985.311 644.428 983.175 645.712 980.735C646.996 978.292 647.74 975.604 647.892 972.851C648.027 971.167 647.772 969.477 647.148 967.909C646.521 966.341 645.544 964.936 644.289 963.807C639.177 959.49 630.954 960.887 624.959 963.636L619.788 966.008L629.702 893.561L635.892 894.409L627.459 956.034C635.605 953.64 643.154 954.671 648.323 959.035C650.308 960.769 651.864 962.937 652.873 965.372C653.88 967.805 654.313 970.44 654.135 973.07C653.952 976.77 652.962 980.385 651.235 983.663C649.508 986.939 647.085 989.801 644.137 992.043C634.245 999.271 621.387 999.633 611.054 999.922Z" fill="#2F2E41"/>
<path d="M700.152 899.721H666.506V905.97H700.152V899.721Z" fill="#2F2E41"/>
<path d="M593.938 899.721H560.288V905.97H593.938V899.721Z" fill="#2F2E41"/>
<path d="M825.68 1608.01H432.059C428.333 1608.01 424.759 1606.53 422.124 1603.89C419.489 1601.26 418.005 1597.68 418 1593.95V1277.75C418.043 1239.42 433.29 1202.67 460.394 1175.57C487.499 1148.46 524.247 1133.22 562.576 1133.18H691.348C695.036 1133.18 698.574 1134.63 701.202 1137.22C703.83 1139.8 705.34 1143.31 705.405 1147L839.739 1593.73V1593.95C839.734 1597.68 838.25 1601.26 835.615 1603.89C832.98 1606.53 829.408 1608.01 825.68 1608.01Z" fill="#2F2E41"/>
<path d="M563.688 1260.83L610.715 1261.13C616.206 1261.16 621.452 1262.94 625.304 1266.07C629.158 1269.2 631.299 1273.43 631.263 1277.82L628.182 1591.24C628.134 1595.63 625.908 1599.83 621.994 1602.91C618.083 1605.99 612.8 1607.7 607.309 1607.67L560.282 1607.38C554.79 1607.34 549.544 1605.56 545.693 1602.43C541.841 1599.3 539.698 1595.07 539.734 1590.68L542.815 1277.26C542.863 1272.87 545.088 1268.67 549.002 1265.59C552.916 1262.51 558.196 1260.8 563.688 1260.83Z" fill="#FFB9B9"/>
<path d="M517.97 1245.63C517.97 1227.4 525.21 1209.92 538.099 1197.03C550.987 1184.15 568.469 1176.91 586.695 1176.91C604.924 1176.91 622.404 1184.15 635.295 1197.03C648.183 1209.92 655.424 1227.4 655.424 1245.63V1398.7H517.97V1245.63Z" fill="#2F2E41"/>
</g>
<defs>
<filter id="filter0_i_115_3" x="1655.05" y="363.372" width="141.146" height="144.144" filterUnits="userSpaceOnUse" color-interpolation-filters="sRGB">
<feFlood flood-opacity="0" result="BackgroundImageFix"/>
<feBlend mode="normal" in="SourceGraphic" in2="BackgroundImageFix" result="shape"/>
<feColorMatrix in="SourceAlpha" type="matrix" values="0 0 0 0 0 0 0 0 0 0 0 0 0 0 0 0 0 0 127 0" result="hardAlpha"/>
<feOffset dx="-1" dy="4"/>
<feGaussianBlur stdDeviation="33.5"/>
<feComposite in2="hardAlpha" operator="arithmetic" k2="-1" k3="1"/>
<feColorMatrix type="matrix" values="0 0 0 0 0.929412 0 0 0 0 0.12549 0 0 0 0 1 0 0 0 1 0"/>
<feBlend mode="normal" in2="shape" result="effect1_innerShadow_115_3"/>
</filter>
<filter id="filter1_i_115_3" x="1217.87" y="854.063" width="137.453" height="141.454" filterUnits="userSpaceOnUse" color-interpolation-filters="sRGB">
<feFlood flood-opacity="0" result="BackgroundImageFix"/>
<feBlend mode="normal" in="SourceGraphic" in2="BackgroundImageFix" result="shape"/>
<feColorMatrix in="SourceAlpha" type="matrix" values="0 0 0 0 0 0 0 0 0 0 0 0 0 0 0 0 0 0 127 0" result="hardAlpha"/>
<feOffset dy="4"/>
<feGaussianBlur stdDeviation="14.5"/>
<feComposite in2="hardAlpha" operator="arithmetic" k2="-1" k3="1"/>
<feColorMatrix type="matrix" values="0 0 0 0 1 0 0 0 0 0.396078 0 0 0 0 0.517647 0 0 0 1 0"/>
<feBlend mode="normal" in2="shape" result="effect1_innerShadow_115_3"/>
</filter>
<filter id="filter2_i_115_3" x="1827.19" y="920.884" width="140.149" height="144.145" filterUnits="userSpaceOnUse" color-interpolation-filters="sRGB">
<feFlood flood-opacity="0" result="BackgroundImageFix"/>
<feBlend mode="normal" in="SourceGraphic" in2="BackgroundImageFix" result="shape"/>
<feColorMatrix in="SourceAlpha" type="matrix" values="0 0 0 0 0 0 0 0 0 0 0 0 0 0 0 0 0 0 127 0" result="hardAlpha"/>
<feOffset dy="4"/>
<feGaussianBlur stdDeviation="33.5"/>
<feComposite in2="hardAlpha" operator="arithmetic" k2="-1" k3="1"/>
<feColorMatrix type="matrix" values="0 0 0 0 0.929412 0 0 0 0 0.12549 0 0 0 0 1 0 0 0 1 0"/>
<feBlend mode="normal" in2="shape" result="effect1_innerShadow_115_3"/>
</filter>
<linearGradient id="paint0_linear_115_3" x1="4292.17" y1="1439.06" x2="4381.22" y2="1902.68" gradientUnits="userSpaceOnUse">
<stop stop-color="#6373FF"/>
<stop offset="1" stop-color="#6373FF" stop-opacity="0"/>
</linearGradient>
<linearGradient id="paint1_linear_115_3" x1="223.979" y1="627.351" x2="313.032" y2="1090.97" gradientUnits="userSpaceOnUse">
<stop stop-color="#FC63FF"/>
<stop offset="0.964288" stop-color="#FC63FF" stop-opacity="0"/>
</linearGradient>
<linearGradient id="paint2_linear_115_3" x1="2265.66" y1="-94.6522" x2="2250.42" y2="1783.25" gradientUnits="userSpaceOnUse">
<stop stop-color="#5920FF"/>
<stop offset="1" stop-color="#7B1EFF"/>
</linearGradient>
<clipPath id="clip0_115_3">
<rect width="4624.58" height="2623" fill="white"/>
</clipPath>
</defs>
</svg>
