<svg width="318" height="301" viewBox="0 0 318 301" fill="none" xmlns="http://www.w3.org/2000/svg">
<ellipse cx="159" cy="150.5" rx="159" ry="150.5" fill="#2965F1"/>
<path d="M65.3783 132.005L69.0116 172.514H159.686V132.005H65.3783ZM58.0797 50L61.7608 90.5087H159.67V50H58H58.0797ZM159.67 237.229H159.495L114.365 225.038L111.48 192.721H70.7327L76.4058 256.336L159.399 279.427H159.59L159.67 237.229Z" fill="#EBEBEB"/>
<path d="M253.651 132.005L260.966 50H159.407V90.5086H216.505L212.824 131.942H159.407V172.45H209.302L204.521 225.038L159.407 237.261V279.411L242.464 256.384L243.07 249.531L252.631 142.858L253.619 131.973L253.651 132.005Z" fill="white"/>
</svg>
