<svg width="153" height="145" viewBox="0 0 153 145" fill="none" xmlns="http://www.w3.org/2000/svg">
<path d="M152.185 0L0 0L0 145H152.185V0Z" fill="url(#paint0_linear_66_70)"/>
<path d="M148.917 3.26147L3.26343 3.26147L3.26343 141.73H148.917V3.26147Z" fill="white"/>
<path d="M143.696 8.49048L8.49377 8.49048L8.49377 136.509H143.696V8.49048Z" fill="#6C63FF"/>
<path d="M75.7075 109L49.7775 101.809L44 37H107.493L101.709 101.8L75.7075 109Z" fill="#264DE4"/>
<path d="M96.7582 97.6763L101.701 42.3022H75.7522V103.488L96.7582 97.6763Z" fill="#2965F1"/>
<path d="M57.271 66.3373L57.9838 74.2844H75.7728V66.3373H57.271ZM55.8391 50.249L56.5613 58.1962H75.7697V50.249H55.8235H55.8391ZM75.7697 86.9806H75.7353L66.8814 84.5889L66.3155 78.2487H58.3214L59.4344 90.7291L75.7165 95.2592H75.754L75.7697 86.9806Z" fill="#EBEBEB"/>
<path d="M94.1944 66.3317L95.6294 50.2434H75.7051V58.1906H86.9068L86.1846 66.3191H75.7051V74.2663H85.4937L84.5558 84.5833L75.7051 86.9812V95.2505L91.9997 90.7329L92.1185 89.3885L93.9943 68.4607L94.1881 66.3254L94.1944 66.3317Z" fill="white"/>
<defs>
<linearGradient id="paint0_linear_66_70" x1="76.0924" y1="145" x2="76.0924" y2="0" gradientUnits="userSpaceOnUse">
<stop stop-color="#808080" stop-opacity="0.25"/>
<stop offset="0.53514" stop-color="#808080" stop-opacity="0.12"/>
<stop offset="1" stop-color="#808080" stop-opacity="0.1"/>
</linearGradient>
</defs>
</svg>
