<svg width="318" height="301" viewBox="0 0 318 301" fill="none" xmlns="http://www.w3.org/2000/svg">
<ellipse cx="159" cy="150.5" rx="159" ry="150.5" fill="#F16529"/>
<path d="M101.264 90.53H158.568V50.0189H57L57.9673 60.8915L67.9307 172.52H158.587V132.008H104.979L101.264 90.53ZM110.473 192.775H69.846L75.5144 256.386L158.394 279.485H158.587V237.214H158.413L113.298 225.026L110.473 192.775Z" fill="#EBEBEB"/>
<path d="M158.433 172.52H208.308L203.607 225.065L158.433 237.253V279.487L241.487 256.464L242.087 249.616L251.605 142.959L252.592 132.087H158.433V172.598V172.52ZM158.433 90.4339V90.5306H256.287L257.1 81.4185L259.034 60.8726L260.002 50H158.433V90.4145V90.4339Z" fill="white"/>
</svg>
