<svg width="153" height="145" viewBox="0 0 153 145" fill="none" xmlns="http://www.w3.org/2000/svg">
<path d="M152.185 0L0 0L0 145H152.185V0Z" fill="url(#paint0_linear_66_41)"/>
<path d="M148.917 3.26147L3.26343 3.26147L3.26343 141.73H148.917V3.26147Z" fill="white"/>
<path d="M143.696 8.49048L8.49377 8.49048L8.49377 136.509H143.696V8.49048Z" fill="#6C63FF"/>
<path d="M107.487 37L101.702 101.789L75.7035 109L49.7767 101.789L44 37H107.487Z" fill="#E44D26"/>
<path d="M75.738 103.487L96.746 97.6646L101.68 42.2964H75.738V103.487Z" fill="#F16529"/>
<path d="M64.4956 58.1962H75.7378V50.2485H55.8116L56.0014 52.3816L57.9561 74.2814H75.7416V66.3337H65.2244L64.4956 58.1962ZM66.3023 78.2552H58.3318L59.4439 90.7347L75.7036 95.2665H75.7416V86.9734H75.7074L66.8564 84.5823L66.3023 78.2552Z" fill="#EBEBEB"/>
<path d="M75.7085 74.2789H85.4932L84.5709 84.5874L75.7085 86.9785V95.264L92.0024 90.7474L92.1201 89.4038L93.9875 68.4794L94.181 66.3464H75.7085V74.2941V74.2789ZM75.7085 58.1747V58.1937H94.906L95.0654 56.406L95.4449 52.3752L95.6347 50.2422H75.7085V58.1709V58.1747Z" fill="white"/>
<defs>
<linearGradient id="paint0_linear_66_41" x1="76.0924" y1="145" x2="76.0924" y2="0" gradientUnits="userSpaceOnUse">
<stop stop-color="#808080" stop-opacity="0.25"/>
<stop offset="0.53514" stop-color="#808080" stop-opacity="0.12"/>
<stop offset="1" stop-color="#808080" stop-opacity="0.1"/>
</linearGradient>
</defs>
</svg>
