<svg width="153" height="145" viewBox="0 0 153 145" fill="none" xmlns="http://www.w3.org/2000/svg">
<path d="M152.185 0L0 0L0 145H152.185V0Z" fill="url(#paint0_linear_66_60)"/>
<path d="M148.917 3.26147L3.26349 3.26147L3.26349 141.73H148.917V3.26147Z" fill="white"/>
<path d="M143.696 8.49048L8.49377 8.49048L8.49377 136.509H143.696V8.49048Z" fill="#6C63FF"/>
<g clip-path="url(#clip0_66_60)">
<path d="M118.864 67.2932C118.614 67.2932 118.37 67.345 118.154 67.467L111.33 71.4082C110.888 71.6628 110.62 72.1433 110.62 72.6546V80.5227C110.62 81.0336 110.888 81.5135 111.33 81.7687L113.112 82.7976C113.978 83.2243 114.297 83.2176 114.691 83.2176C115.973 83.2176 116.705 82.4397 116.705 81.0878V73.321C116.705 73.2112 116.61 73.1327 116.503 73.1327H115.648C115.538 73.1327 115.445 73.2112 115.445 73.321V81.0878C115.445 81.6869 114.821 82.2896 113.808 81.7832L111.953 80.6965C111.887 80.6608 111.837 80.5978 111.837 80.5227V72.6544C111.837 72.5799 111.887 72.504 111.953 72.4661L118.763 68.5396C118.794 68.5216 118.829 68.5122 118.864 68.5122C118.9 68.5122 118.935 68.5216 118.966 68.5396L125.776 72.4663C125.841 72.5054 125.892 72.5777 125.892 72.6548V80.5229C125.892 80.598 125.854 80.6749 125.791 80.7112L118.966 84.6378C118.907 84.6727 118.827 84.6727 118.763 84.6378L117.01 83.5946C116.983 83.5802 116.953 83.5726 116.923 83.5726C116.892 83.5726 116.863 83.5802 116.836 83.5946C116.352 83.8689 116.261 83.9008 115.807 84.0582C115.695 84.0973 115.525 84.1579 115.865 84.3482L118.154 85.6955C118.37 85.8201 118.615 85.8851 118.864 85.884C119.114 85.8856 119.359 85.8206 119.574 85.6957L126.399 81.7689C126.841 81.5121 127.109 81.0338 127.109 80.5229V72.6546C127.109 72.1435 126.841 71.6638 126.399 71.4086L119.574 67.4674C119.36 67.3452 119.115 67.2934 118.864 67.2934L118.864 67.2932Z" fill="#83CD29"/>
<path d="M120.69 72.9153C118.747 72.9153 117.589 73.7424 117.589 75.1179C117.589 76.6098 118.738 77.0198 120.603 77.2043C122.835 77.4228 123.009 77.7504 123.009 78.1896C123.009 78.9515 122.401 79.2763 120.966 79.2763C119.162 79.2763 118.765 78.826 118.633 77.9288C118.617 77.8326 118.543 77.7548 118.444 77.7548H117.56C117.452 77.7548 117.358 77.8487 117.358 77.9578C117.358 79.1064 117.982 80.4645 120.966 80.4645C123.125 80.4645 124.371 79.6169 124.371 78.1316C124.371 76.6595 123.365 76.2642 121.27 75.9873C119.153 75.7071 118.951 75.57 118.951 75.0744C118.951 74.6651 119.123 74.1178 120.69 74.1178C122.091 74.1178 122.608 74.4199 122.82 75.3642C122.839 75.4528 122.917 75.5235 123.009 75.5235H123.893C123.947 75.5235 124 75.49 124.037 75.451C124.074 75.4093 124.101 75.3624 124.095 75.3062C123.958 73.6802 122.874 72.9153 120.69 72.9153Z" fill="#83CD29"/>
<path d="M78.7418 56.9764C78.6655 56.9765 78.5905 56.9964 78.5243 57.0342C78.4584 57.0727 78.4038 57.1277 78.3657 57.1938C78.3276 57.2599 78.3073 57.3347 78.307 57.411V68.4959C78.307 68.6046 78.2564 68.7021 78.1622 68.7567C78.116 68.7836 78.0635 68.7977 78.01 68.7977C77.9566 68.7977 77.9041 68.7836 77.8579 68.7567L76.0466 67.7135C75.9145 67.637 75.7645 67.5968 75.6119 67.5968C75.4592 67.5968 75.3093 67.637 75.1772 67.7135L67.9467 71.8864C67.6765 72.0425 67.5121 72.3424 67.5121 72.6545V81.0007C67.5121 81.3124 67.6767 81.598 67.9467 81.7541L75.1772 85.9273C75.3092 86.0039 75.4592 86.0443 75.6119 86.0443C75.7646 86.0443 75.9145 86.0039 76.0466 85.9273L83.277 81.7541C83.4094 81.6779 83.5193 81.5681 83.5957 81.4358C83.672 81.3035 83.7121 81.1534 83.7118 81.0007V60.1932C83.7116 60.0369 83.67 59.8834 83.5911 59.7485C83.5122 59.6135 83.3989 59.5019 83.2627 59.4251L78.9591 57.0197C78.8916 56.9821 78.8167 56.9754 78.7418 56.9764ZM32.229 67.3947C32.0912 67.4001 31.9615 67.4243 31.8379 67.496L24.6072 71.6691C24.4748 71.7452 24.3648 71.855 24.2885 71.9873C24.2121 72.1196 24.1722 72.2698 24.1726 72.4225L24.1871 83.6236C24.1871 83.7793 24.2675 83.9241 24.4044 84.0002C24.4701 84.0396 24.5452 84.0605 24.6218 84.0605C24.6984 84.0605 24.7736 84.0396 24.8392 84.0002L29.1282 81.537C29.3999 81.3755 29.5773 81.0947 29.5773 80.7834V75.5525C29.5773 75.2404 29.7414 74.954 30.0121 74.7989L31.8377 73.7412C31.9697 73.6645 32.1198 73.6244 32.2725 73.6252C32.4215 73.6252 32.5746 73.6625 32.7071 73.7412L34.5329 74.7989C34.6654 74.8749 34.7755 74.9847 34.8519 75.1171C34.9283 75.2495 34.9682 75.3997 34.9677 75.5525V80.7832C34.9677 81.0945 35.1469 81.3773 35.4168 81.5368L39.7057 84.0002C39.7714 84.0396 39.8465 84.0605 39.9231 84.0605C39.9997 84.0605 40.0749 84.0396 40.1405 84.0002C40.2066 83.9619 40.2615 83.907 40.2997 83.8409C40.3378 83.7747 40.358 83.6997 40.358 83.6234L40.3721 72.4225C40.373 72.2697 40.3332 72.1194 40.2568 71.987C40.1805 71.8546 40.0703 71.7449 39.9375 71.6691L32.7071 67.496C32.5848 67.4243 32.4547 67.4003 32.316 67.3947H32.229ZM97.2019 67.496C97.0508 67.496 96.9028 67.5342 96.7673 67.612L89.5368 71.7851C89.4044 71.8613 89.2945 71.9711 89.2181 72.1034C89.1418 72.2357 89.1017 72.3858 89.102 72.5385V80.8847C89.102 81.1987 89.2788 81.483 89.5511 81.6383L96.7238 85.7245C96.9886 85.8755 97.312 85.887 97.5787 85.7386L101.926 83.3189C102.064 83.2424 102.157 83.0994 102.157 82.9423C102.158 82.8658 102.138 82.7905 102.1 82.7242C102.062 82.658 102.007 82.6032 101.94 82.5655L94.6662 78.3923C94.5301 78.3146 94.4344 78.1573 94.4344 78.001V75.393C94.4344 75.2369 94.5311 75.094 94.6662 75.0162L96.9266 73.712C96.9927 73.6738 97.0676 73.6537 97.144 73.6537C97.2203 73.6537 97.2953 73.6738 97.3614 73.712L99.6216 75.0162C99.6878 75.0543 99.7428 75.1091 99.781 75.1753C99.8192 75.2414 99.8392 75.3165 99.8391 75.3928V77.4504C99.8389 77.5268 99.8589 77.6018 99.897 77.668C99.9352 77.7341 99.9902 77.789 100.056 77.827C100.192 77.9053 100.356 77.9056 100.491 77.827L104.824 75.3062C104.956 75.2297 105.066 75.1199 105.142 74.9876C105.218 74.8553 105.258 74.7053 105.258 74.5526V72.5387C105.258 72.2276 105.093 71.9414 104.824 71.7851L97.6367 67.612C97.5046 67.5355 97.3545 67.4956 97.2019 67.4962V67.496ZM75.5828 73.7267C75.6206 73.7267 75.6649 73.736 75.6988 73.7555L78.1767 75.19C78.2439 75.2289 78.2927 75.3008 78.2927 75.3783V78.2473C78.2927 78.3252 78.2443 78.3969 78.1767 78.4358L75.6988 79.8703C75.6657 79.8892 75.6282 79.8991 75.5901 79.8991C75.552 79.8991 75.5146 79.8892 75.4815 79.8703L73.0038 78.4358C72.9363 78.3967 72.8878 78.3252 72.8878 78.2473V75.3783C72.8878 75.3006 72.9365 75.2293 73.0038 75.19L75.4815 73.7557C75.5119 73.7368 75.5471 73.7268 75.583 73.7269V73.7267H75.5828Z" fill="#404137"/>
<path d="M53.9493 67.4524C53.7987 67.4524 53.6497 67.4907 53.5148 67.5684L46.2843 71.7271C46.0138 71.8827 45.8495 72.1832 45.8495 72.495V80.8411C45.8495 81.1533 46.014 81.4385 46.2843 81.5947L53.5148 85.7677C53.6468 85.8444 53.7968 85.8848 53.9494 85.8848C54.1021 85.8848 54.2521 85.8444 54.3841 85.7677L61.6146 81.5947C61.747 81.5185 61.8569 81.4087 61.9332 81.2763C62.0095 81.144 62.0495 80.9939 62.0492 80.8411V72.495C62.0492 72.1828 61.8849 71.8827 61.6146 71.7271L54.3841 67.5684C54.252 67.4921 54.102 67.452 53.9493 67.4524ZM97.1873 74.9004C97.1585 74.9004 97.1265 74.9004 97.1005 74.9149L95.7096 75.7263C95.6836 75.7407 95.6619 75.7617 95.6466 75.7871C95.6314 75.8126 95.6231 75.8416 95.6226 75.8713V77.465C95.6226 77.5251 95.6572 77.58 95.7096 77.61L97.1005 78.4069C97.1527 78.4372 97.2083 78.4372 97.2598 78.4069L98.6508 77.6098C98.6767 77.5954 98.6983 77.5744 98.7135 77.549C98.7288 77.5236 98.7372 77.4947 98.7378 77.465V75.8711C98.7372 75.8414 98.7288 75.8125 98.7135 75.7871C98.6983 75.7617 98.6767 75.7407 98.6508 75.7263L97.2598 74.9147C97.2341 74.8996 97.2163 74.9006 97.1873 74.9006V74.9004Z" fill="#83CD29"/>
</g>
<defs>
<linearGradient id="paint0_linear_66_60" x1="76.0924" y1="145" x2="76.0924" y2="0" gradientUnits="userSpaceOnUse">
<stop stop-color="#808080" stop-opacity="0.25"/>
<stop offset="0.53514" stop-color="#808080" stop-opacity="0.12"/>
<stop offset="1" stop-color="#808080" stop-opacity="0.1"/>
</linearGradient>
<clipPath id="clip0_66_60">
<rect width="103.111" height="29" fill="white" transform="translate(24 57)"/>
</clipPath>
</defs>
</svg>
