<svg width="56" height="68" viewBox="0 0 56 68" fill="none" xmlns="http://www.w3.org/2000/svg">
<path d="M34.648 68L21.208 43.04H19.192V68H0.376V0.319996H30.04C35.48 0.319996 40.088 1.28 43.864 3.2C47.64 5.056 50.488 7.648 52.408 10.976C54.328 14.24 55.288 17.92 55.288 22.016C55.288 26.624 54.008 30.688 51.448 34.208C48.952 37.664 45.272 40.128 40.408 41.6L55.672 68H34.648ZM19.192 30.176H28.504C31.064 30.176 32.984 29.568 34.264 28.352C35.544 27.136 36.184 25.376 36.184 23.072C36.184 20.896 35.512 19.2 34.168 17.984C32.888 16.704 31 16.064 28.504 16.064H19.192V30.176Z" fill="#ED20FF"/>
</svg>
