<svg width="153" height="145" viewBox="0 0 153 145" fill="none" xmlns="http://www.w3.org/2000/svg">
<path d="M152.185 0L0 0L0 145H152.185V0Z" fill="url(#paint0_linear_66_54)"/>
<path d="M148.917 3.26147L3.26343 3.26147L3.26343 141.73H148.917V3.26147Z" fill="white"/>
<path d="M143.696 8.49048L8.49377 8.49048L8.49377 136.509H143.696V8.49048Z" fill="#6C63FF"/>
<path d="M35 71.2084C34.9807 77.3375 40.9476 83.078 50.3728 86.333C48.4586 95.8125 49.9812 103.463 55.1373 106.458C60.437 109.537 68.3537 107.443 75.8822 100.903C83.1806 107.224 90.5689 109.726 95.7394 106.755C101.054 103.701 102.693 95.542 100.787 85.7541C110.625 82.5361 116.138 77.6747 116.158 71.4648C116.176 65.4779 110.197 60.2797 100.899 57.0458C103.015 46.8665 101.273 39.4009 95.903 36.2819C90.7262 33.2747 83.2357 35.8578 75.7895 42.2968C68.0855 35.4131 60.6839 33.2956 55.3003 36.3893C50.1093 39.3723 48.6063 47.1523 50.466 56.8192C41.3389 59.969 35.0189 65.2457 35 71.2084Z" fill="white"/>
<path d="M98.918 60.2213C98.1517 59.9558 97.379 59.7096 96.6 59.4829C96.731 58.9581 96.8522 58.4309 96.9636 57.9016C98.7468 49.3815 97.6202 42.5096 93.7058 40.2363C89.9529 38.056 83.7965 40.2975 77.5689 45.6823C76.9553 46.2142 76.3553 46.7612 75.7691 47.3235C75.3791 46.9473 74.9822 46.5784 74.5784 46.2167C68.0879 40.4169 61.5715 37.9612 57.647 40.2165C53.8838 42.3791 52.7508 48.8326 54.3065 56.9173C54.4613 57.718 54.6363 58.5143 54.8317 59.3063C53.9077 59.5656 53.0153 59.8422 52.1614 60.1367C44.5224 62.7729 39.6359 66.9272 39.6222 71.2519C39.6081 75.7189 44.8252 80.2158 52.7649 82.9573C53.4087 83.1786 54.0577 83.3837 54.7119 83.5727C54.4966 84.4243 54.3051 85.2814 54.1376 86.1441C52.605 94.0787 53.7625 100.386 57.502 102.559C61.3645 104.803 67.8661 102.53 74.2076 97.0219C74.7089 96.5865 75.2116 96.126 75.716 95.6404C76.3469 96.2529 76.9944 96.8476 77.6587 97.4242C83.7677 102.715 89.8107 104.862 93.5608 102.707C97.4338 100.482 98.7114 93.7134 97.1061 85.4687C96.9837 84.8389 96.8417 84.1963 96.68 83.5407C97.1366 83.4075 97.5838 83.2694 98.0217 83.1264C106.293 80.4151 111.683 76.0062 111.697 71.4796C111.711 67.1393 106.694 62.9257 98.918 60.2213H98.918Z" fill="#53C1DE"/>
<path d="M97.0622 80.1995C96.6678 80.3287 96.2629 80.4535 95.8504 80.5743C94.8524 77.4482 93.6427 74.3937 92.2296 71.432C93.6074 68.5187 94.7888 65.5165 95.7658 62.4454C96.5022 62.6614 97.2173 62.8886 97.9062 63.1284C104.569 65.4451 108.626 68.8529 108.618 71.4685C108.609 74.2548 104.204 77.8581 97.0625 80.1995H97.0622ZM94.0835 86.0559C94.7932 89.7015 94.8858 92.9959 94.3999 95.5695C93.9632 97.882 93.0952 99.4219 92.0259 100.036C89.7503 101.344 84.898 99.6196 79.674 95.0952C79.075 94.5766 78.4726 94.0239 77.8668 93.4372C80.0587 91.0259 82.0852 88.4693 83.9325 85.7849C87.2179 85.5181 90.4811 85.0257 93.6989 84.3111C93.8438 84.9049 93.972 85.4865 94.0835 86.0559V86.0559ZM64.1039 99.721C61.8823 100.498 60.1148 100.514 59.0485 99.8952C56.779 98.577 55.8501 93.5118 57.1606 86.7264C57.3164 85.9245 57.4944 85.1274 57.6945 84.3351C60.8944 85.0331 64.138 85.5131 67.4029 85.7719C69.2871 88.4586 71.3458 91.0186 73.5657 93.4354C73.117 93.8667 72.6579 94.2867 72.1885 94.6955C69.3842 97.1313 66.5766 98.8564 64.1043 99.721H64.1039ZM53.7695 80.0455C50.2588 78.8331 47.3614 77.2629 45.3773 75.5533C43.5946 74.0165 42.6967 72.4937 42.7006 71.2603C42.7089 68.636 46.6323 65.3007 53.1655 63.046C53.9855 62.7643 54.8132 62.5067 55.6487 62.2733C56.6079 65.3848 57.7718 68.4293 59.1328 71.3871C57.7358 74.3785 56.5379 77.4588 55.547 80.6081C54.95 80.4351 54.3575 80.2476 53.7695 80.0455ZM57.3296 56.3341C55.9968 49.4071 56.9128 44.1879 59.1807 42.8847C61.5966 41.4965 66.9221 43.5037 72.5261 48.5113C72.8842 48.8314 73.2439 49.1665 73.6042 49.5131C71.3845 51.9004 69.3255 54.4321 67.4406 57.0917C64.2048 57.3716 60.9906 57.8608 57.818 58.5561C57.6366 57.8195 57.4738 57.0788 57.3296 56.3338V56.3341ZM88.3952 64.1092C87.6945 62.8899 86.9677 61.6861 86.2149 60.4978C88.5138 60.7953 90.7158 61.1883 92.7832 61.6672C92.1124 63.7714 91.336 65.8403 90.4567 67.8663C89.7947 66.6003 89.1075 65.348 88.3952 64.1092ZM75.7558 51.7202C77.2498 53.3592 78.66 55.0726 79.9811 56.8539C77.1436 56.7108 74.304 56.7012 71.4625 56.825C72.8686 54.9829 74.3085 53.2719 75.7558 51.7202ZM62.957 64.0499C62.2461 65.2741 61.564 66.5143 60.9108 67.7707C60.0208 65.6412 59.2603 63.5479 58.6402 61.5268C60.6981 61.073 62.8923 60.7039 65.178 60.4256C64.4094 61.6161 63.6691 62.8242 62.957 64.0499ZM65.1741 82.4567C62.9439 82.2076 60.728 81.8441 58.5351 81.3677C59.1779 79.3149 59.9687 77.1815 60.8914 75.0122C61.5392 76.2732 62.2164 77.5185 62.923 78.7481C63.6438 80.002 64.3942 81.2382 65.1741 82.4567V82.4567ZM75.7162 91.2266C74.2618 89.6472 72.8118 87.9009 71.396 86.0231C72.7758 86.0817 74.1813 86.1133 75.6127 86.1181C77.0819 86.1227 78.5323 86.0951 79.9639 86.0352C78.6376 87.8371 77.2198 89.5698 75.7162 91.2266V91.2266ZM90.4636 74.9949C91.373 77.0679 92.1742 79.1868 92.8639 81.3429C90.6427 81.8347 88.3973 82.2101 86.1369 82.4677C86.9025 81.2624 87.644 80.0422 88.3612 78.8071C89.0902 77.5521 89.791 76.2814 90.4636 74.9949V74.9949ZM85.6988 77.2606C84.601 79.1537 83.4425 81.0097 82.2234 82.8286C80.0845 82.9746 77.8744 83.0464 75.6224 83.0393C73.3797 83.0322 71.1981 82.9555 69.0974 82.8126C67.859 80.9913 66.6907 79.125 65.5926 77.2139C64.5004 75.3143 63.4816 73.3753 62.536 71.3969C63.4909 69.4253 64.5189 67.4917 65.6201 65.5961V65.5967C66.7201 63.7021 67.8909 61.8512 69.1324 60.0442C71.2764 59.8889 73.4744 59.811 75.6961 59.818C77.9277 59.825 80.128 59.9175 82.2704 60.0876C83.4871 61.8983 84.6389 63.7502 85.7256 65.6433C86.8178 67.5403 87.8474 69.4713 88.8145 71.4362C87.8455 73.414 86.8071 75.3555 85.6991 77.2606H85.6988ZM92.1592 42.8973C94.5682 44.297 95.4892 49.913 93.9496 57.2693C93.8486 57.7485 93.7391 58.2258 93.621 58.7011C90.448 57.9714 87.2303 57.4527 83.9888 57.1482C82.1396 54.4736 80.1122 51.9268 77.9203 49.5251C78.4618 49.0064 79.0158 48.5014 79.5825 48.0101C84.9184 43.396 89.8973 41.5833 92.1592 42.8973V42.8973Z" fill="white"/>
<path d="M75.6779 64.929C76.9509 64.933 78.1941 65.3144 79.2503 66.0249C80.3065 66.7355 81.1283 67.7433 81.6117 68.9209C82.0951 70.0985 82.2185 71.393 81.9662 72.6407C81.714 73.8884 81.0973 75.0333 80.1944 75.9306C79.2914 76.8279 78.1427 77.4373 76.8934 77.6817C75.6441 77.926 74.3504 77.7945 73.1759 77.3036C72.0014 76.8127 70.9989 75.9846 70.295 74.9239C69.5912 73.8632 69.2177 72.6176 69.2217 71.3447C69.2244 70.4995 69.3935 69.6631 69.7194 68.8833C70.0453 68.1034 70.5216 67.3954 71.1211 66.7997C71.7207 66.2039 72.4316 65.7321 73.2135 65.4111C73.9953 65.0901 74.8328 64.9263 75.6779 64.929" fill="#53C1DE"/>
<defs>
<linearGradient id="paint0_linear_66_54" x1="76.0924" y1="145" x2="76.0924" y2="0" gradientUnits="userSpaceOnUse">
<stop stop-color="#808080" stop-opacity="0.25"/>
<stop offset="0.53514" stop-color="#808080" stop-opacity="0.12"/>
<stop offset="1" stop-color="#808080" stop-opacity="0.1"/>
</linearGradient>
</defs>
</svg>
